<?xml version="1.0" encoding="utf-8"?>
<!-- Generator: Adobe Illustrator 25.3.1, SVG Export Plug-In . SVG Version: 6.00 Build 0)  -->
<svg version="1.1" id="Layer_1" xmlns="http://www.w3.org/2000/svg" xmlns:xlink="http://www.w3.org/1999/xlink" x="0px" y="0px"
	 viewBox="0 0 24 24" style="enable-background:new 0 0 24 24;" xml:space="preserve">
<style type="text/css">
	.st0{fill:#AEA0CE;}
</style>
<g>
	<path id="path152_1_" class="st0" d="M12.01,21.06l-7.46-3.8l7.46-3.65V21.06z"/>
	<path id="path158_1_" class="st0" d="M12.01,13.61l7.44,3.67l-7.44,3.79V13.61z"/>
	<path id="path164_1_" class="st0" d="M16.41,11.46l3.04,5.82l-7.44-3.67L16.41,11.46z"/>
	<path id="path170_1_" class="st0" d="M7.61,11.45l4.4,2.16l-7.46,3.65L7.61,11.45z"/>
	<path id="path176_1_" class="st0" d="M12.01,13.61V3.06l-4.4,8.39L12.01,13.61z"/>
	<path id="path182_1_" class="st0" d="M12.01,13.61V3.06l4.4,8.4L12.01,13.61z"/>
	<path id="path188_1_" class="st0" d="M12.01,21.06l-7.46-3.8l7.46-3.65V21.06z"/>
	<path id="path194_1_" class="st0" d="M12.01,13.61l7.44,3.67l-7.44,3.79V13.61z"/>
	<path id="path200_1_" class="st0" d="M16.41,11.46l3.04,5.82l-7.44-3.67L16.41,11.46z"/>
	<path id="path206_1_" class="st0" d="M7.61,11.45l4.4,2.16l-7.46,3.65L7.61,11.45z"/>
	<path id="path212_1_" class="st0" d="M12.01,13.61V3.06l-4.4,8.39L12.01,13.61z"/>
	<path id="path218_1_" class="st0" d="M12.01,13.61V3.06l4.4,8.4L12.01,13.61z"/>
</g>
</svg>
